<svg xmlns="http://www.w3.org/2000/svg" class="icon" viewBox="0 0 20 20" fill="currentColor">
        <path fill-rule="evenodd" d="M7.23 3.333C7.757 2.905 7.68 2 7 2H3.5C2.328 2 1 3.328 1 5v10c0 1.672 1.328 3 3 3h4c.68 0 .757-.905.23-1.333L5.48 14.167c-.527-.428-1.323-1.15-1.323-3.334 0-2.185.796-2.906 1.323-3.333L7.23 3.333z" clip-rule="evenodd" />
        <path fill-rule="evenodd" d="M12.77 3.333C12.243 2.905 12.32 2 13 2h3.5C17.672 2 19 3.328 19 5v10c0 1.672-1.328 3-3 3h-4c-.68 0-.757-.905-.23-1.333l2.75-2.5c.527-.428 1.323-1.15 1.323-3.334 0-2.185-.796-2.906-1.323-3.333L12.77 3.333z" clip-rule="evenodd" />
      </svg>